# xmcd CD database file
#
# Track frame offsets:
#	150
#	20872
#	48350
#	73590
#	99826
#	123272
#	153676
#	177773
#	206173
#
# Disc length: 3106 seconds
#
# Revision: 0
# Processed by: cddbd v1.5.2PL0 Copyright (c) Steve Scherf et al.
# Submitted via: CDex 1.77
#
DISCID=790c2009
DTITLE=Akira Jimbo - GROOVE OF LIFE
DYEAR=2015
DGENRE=Jazz
TTITLE0=Smoke On The Quarter
TTITLE1=Groove Of  Life
TTITLE2=Salud!
TTITLE3=Samba Coconuts
TTITLE4=Scent On Your Smile
TTITLE5=Long Long While
TTITLE6=Urban Safari
TTITLE7=Adios
TTITLE8=Silky Breeze
EXTD=YEAR: 2015
EXTT0=
EXTT1=
EXTT2=
EXTT3=
EXTT4=
EXTT5=
EXTT6=
EXTT7=
EXTT8=
PLAYORDER=
